<?xml version="1.0" encoding="utf-8"?>
<!-- Generator: Adobe Illustrator 16.0.3, SVG Export Plug-In . SVG Version: 6.00 Build 0)  -->
<!DOCTYPE svg PUBLIC "-//W3C//DTD SVG 1.1//EN" "http://www.w3.org/Graphics/SVG/1.1/DTD/svg11.dtd">
<svg version="1.1" id="Capa_1" xmlns="http://www.w3.org/2000/svg" xmlns:xlink="http://www.w3.org/1999/xlink" x="0px" y="0px"
	 width="595.28px" height="841.89px" viewBox="0 0 595.28 841.89" enable-background="new 0 0 595.28 841.89" xml:space="preserve">
<radialGradient id="SVGID_1_" cx="297.6401" cy="297.6401" r="297.6401" gradientUnits="userSpaceOnUse">
	<stop  offset="0" style="stop-color:#FFFFFF"/>
	<stop  offset="0.9113" style="stop-color:#FCD0A8"/>
	<stop  offset="1" style="stop-color:#F08019"/>
</radialGradient>
<circle fill="url(#SVGID_1_)" cx="297.64" cy="297.64" r="297.64"/>
<radialGradient id="SVGID_2_" cx="297.6401" cy="297.6401" r="269.2915" gradientUnits="userSpaceOnUse">
	<stop  offset="0" style="stop-color:#6DC6D9"/>
	<stop  offset="1" style="stop-color:#005D3E"/>
</radialGradient>
<circle fill="url(#SVGID_2_)" cx="297.64" cy="297.64" r="269.292"/>
<radialGradient id="SVGID_3_" cx="297.6401" cy="297.6401" r="269.2915" gradientUnits="userSpaceOnUse">
	<stop  offset="0" style="stop-color:#6DC6D9"/>
	<stop  offset="1" style="stop-color:#005D3E"/>
</radialGradient>
<circle fill="url(#SVGID_3_)" cx="297.64" cy="297.64" r="269.292"/>
<g>
	<path d="M272.89,211.348l-6.449,35.595h-80.243l-6.325,36.215c13.559-9.178,27.615-13.767,42.168-13.767
		c17.611,0,32.06,5.168,43.346,15.503c11.286,10.336,16.929,23.564,16.929,39.688c0,18.026-6.347,32.351-19.038,42.974
		c-12.693,10.625-29.828,15.937-51.408,15.937c-39.027,0-58.539-13.395-58.539-40.184c0-3.885,0.578-8.682,1.736-14.387
		l21.952-4.589c-1.407,6.781-2.108,12.982-2.108,18.604c0,16.867,8.97,25.301,26.913,25.301c21.497,0,32.246-15.255,32.246-45.765
		c0-21.58-9.137-32.37-27.409-32.37c-10.914,0-20.63,5.789-29.146,17.363l-19.596-4.713l15.875-91.405H272.89z"/>
	<path d="M374.465,208.744c47.21,0,70.817,29.105,70.817,87.313c0,58.209-23.607,87.313-70.817,87.313
		c-47.296,0-70.941-29.103-70.941-87.313C303.523,237.849,327.169,208.744,374.465,208.744z M374.465,222.262
		c-12.898,0-19.348,24.599-19.348,73.794c0,49.197,6.449,73.794,19.348,73.794c12.815,0,19.224-24.597,19.224-73.794
		C393.688,246.861,387.28,222.262,374.465,222.262z"/>
</g>
</svg>
