<?xml version="1.0" encoding="utf-8"?>
<!-- Generator: Adobe Illustrator 16.0.3, SVG Export Plug-In . SVG Version: 6.00 Build 0)  -->
<!DOCTYPE svg PUBLIC "-//W3C//DTD SVG 1.1//EN" "http://www.w3.org/Graphics/SVG/1.1/DTD/svg11.dtd">
<svg version="1.1" id="Capa_1" xmlns="http://www.w3.org/2000/svg" xmlns:xlink="http://www.w3.org/1999/xlink" x="0px" y="0px"
	 width="595.28px" height="841.89px" viewBox="0 0 595.28 841.89" enable-background="new 0 0 595.28 841.89" xml:space="preserve">
<radialGradient id="SVGID_1_" cx="297.6401" cy="297.6401" r="297.6401" gradientUnits="userSpaceOnUse">
	<stop  offset="0" style="stop-color:#FFFFFF"/>
	<stop  offset="0.9113" style="stop-color:#FCD0A8"/>
	<stop  offset="1" style="stop-color:#F08019"/>
</radialGradient>
<circle fill="url(#SVGID_1_)" cx="297.64" cy="297.64" r="297.64"/>
<radialGradient id="SVGID_2_" cx="297.6401" cy="297.6401" r="269.2915" gradientUnits="userSpaceOnUse">
	<stop  offset="0" style="stop-color:#6DC6D9"/>
	<stop  offset="1" style="stop-color:#005D3E"/>
</radialGradient>
<circle fill="url(#SVGID_2_)" cx="297.64" cy="297.64" r="269.292"/>
<radialGradient id="SVGID_3_" cx="297.6401" cy="297.6401" r="269.2915" gradientUnits="userSpaceOnUse">
	<stop  offset="0" style="stop-color:#6DC6D9"/>
	<stop  offset="1" style="stop-color:#005D3E"/>
</radialGradient>
<circle fill="url(#SVGID_3_)" cx="297.64" cy="297.64" r="269.292"/>
<g>
	<path d="M200.94,213.348v26.045c-29.188,38.199-43.78,82.642-43.78,133.325v9.922h-54.818
		c2.977-49.195,22.654-92.77,59.035-130.721H74.188l5.829-38.571H200.94z"/>
	<path d="M230.458,326.83l22.696-1.24c-1.903,6.533-2.977,12.362-3.225,17.487c-0.828,18.107,8.722,27.161,28.649,27.161
		c19.596,0,29.394-11.038,29.394-33.114c0-22.324-11.701-33.486-35.099-33.486l-13.395,0.248v-19.968l9.674,0.124
		c24.638,0,36.959-10.418,36.959-31.254c0-18.107-8.725-27.161-26.169-27.161c-17.199,0-25.797,7.98-25.797,23.937
		c0,3.887,0.496,8.393,1.488,13.519l-22.696-4.713c0-31.998,18.604-47.997,55.811-47.997c42.912,0,64.368,14.635,64.368,43.904
		c0,19.183-12.113,32.206-36.339,39.067c27.45,6.285,41.176,20.506,41.176,42.664c0,32.99-22.863,49.485-68.585,49.485
		c-40.68,0-61.02-13.643-61.02-40.928C228.35,339.439,229.051,333.527,230.458,326.83z"/>
	<path d="M449.979,210.744c47.21,0,70.817,29.105,70.817,87.313c0,58.209-23.607,87.313-70.817,87.313
		c-47.296,0-70.941-29.103-70.941-87.313C379.038,239.849,402.684,210.744,449.979,210.744z M449.979,224.262
		c-12.898,0-19.348,24.599-19.348,73.794c0,49.197,6.449,73.794,19.348,73.794c12.815,0,19.224-24.597,19.224-73.794
		C469.203,248.861,462.795,224.262,449.979,224.262z"/>
</g>
</svg>
