<?xml version="1.0" encoding="utf-8"?>
<!-- Generator: Adobe Illustrator 16.0.3, SVG Export Plug-In . SVG Version: 6.00 Build 0)  -->
<!DOCTYPE svg PUBLIC "-//W3C//DTD SVG 1.1//EN" "http://www.w3.org/Graphics/SVG/1.1/DTD/svg11.dtd">
<svg version="1.1" id="Capa_1" xmlns="http://www.w3.org/2000/svg" xmlns:xlink="http://www.w3.org/1999/xlink" x="0px" y="0px"
	 width="595.28px" height="841.89px" viewBox="0 0 595.28 841.89" enable-background="new 0 0 595.28 841.89" xml:space="preserve">
<radialGradient id="SVGID_1_" cx="297.6401" cy="297.6401" r="297.6401" gradientUnits="userSpaceOnUse">
	<stop  offset="0" style="stop-color:#FFFFFF"/>
	<stop  offset="0.9113" style="stop-color:#FCD0A8"/>
	<stop  offset="1" style="stop-color:#F08019"/>
</radialGradient>
<circle fill="url(#SVGID_1_)" cx="297.64" cy="297.64" r="297.64"/>
<radialGradient id="SVGID_2_" cx="297.6401" cy="297.6401" r="269.2915" gradientUnits="userSpaceOnUse">
	<stop  offset="0" style="stop-color:#6DC6D9"/>
	<stop  offset="1" style="stop-color:#005D3E"/>
</radialGradient>
<circle fill="url(#SVGID_2_)" cx="297.64" cy="297.64" r="269.292"/>
<radialGradient id="SVGID_3_" cx="297.6401" cy="297.6401" r="269.2915" gradientUnits="userSpaceOnUse">
	<stop  offset="0" style="stop-color:#6DC6D9"/>
	<stop  offset="1" style="stop-color:#005D3E"/>
</radialGradient>
<circle fill="url(#SVGID_3_)" cx="297.64" cy="297.64" r="269.292"/>
<g>
	<path d="M155.222,213.348V382.64h-47.377V255.144c-12.65,6.12-24.392,9.55-35.223,10.294v-22.324
		c24.886-2.48,42.416-12.402,52.586-29.766H155.222z"/>
	<path d="M280.609,210.744c47.21,0,70.817,29.105,70.817,87.313c0,58.209-23.607,87.313-70.817,87.313
		c-47.295,0-70.941-29.103-70.941-87.313C209.668,239.849,233.314,210.744,280.609,210.744z M280.609,224.262
		c-12.898,0-19.348,24.599-19.348,73.794c0,49.197,6.449,73.794,19.348,73.794c12.815,0,19.224-24.597,19.224-73.794
		C299.833,248.861,293.425,224.262,280.609,224.262z"/>
	<path d="M502.983,213.348l-42.292,53.454l62.384,115.838h-54.694l-39.688-74.166l-7.069,7.938v66.229h-49.113V213.348h49.113
		v75.406l58.291-75.406H502.983z"/>
</g>
</svg>
