<?xml version="1.0" encoding="utf-8"?>
<!-- Generator: Adobe Illustrator 16.0.3, SVG Export Plug-In . SVG Version: 6.00 Build 0)  -->
<!DOCTYPE svg PUBLIC "-//W3C//DTD SVG 1.1//EN" "http://www.w3.org/Graphics/SVG/1.1/DTD/svg11.dtd">
<svg version="1.1" id="Capa_1" xmlns="http://www.w3.org/2000/svg" xmlns:xlink="http://www.w3.org/1999/xlink" x="0px" y="0px"
	 width="595.28px" height="841.89px" viewBox="0 0 595.28 841.89" enable-background="new 0 0 595.28 841.89" xml:space="preserve">
<radialGradient id="SVGID_1_" cx="297.6401" cy="297.6401" r="297.6401" gradientUnits="userSpaceOnUse">
	<stop  offset="0" style="stop-color:#FFFFFF"/>
	<stop  offset="0.9113" style="stop-color:#FCD0A8"/>
	<stop  offset="1" style="stop-color:#F08019"/>
</radialGradient>
<circle fill="url(#SVGID_1_)" cx="297.64" cy="297.64" r="297.64"/>
<radialGradient id="SVGID_2_" cx="297.6401" cy="297.6401" r="269.2915" gradientUnits="userSpaceOnUse">
	<stop  offset="0" style="stop-color:#6DC6D9"/>
	<stop  offset="1" style="stop-color:#005D3E"/>
</radialGradient>
<circle fill="url(#SVGID_2_)" cx="297.64" cy="297.64" r="269.292"/>
<radialGradient id="SVGID_3_" cx="297.6401" cy="297.6401" r="269.2915" gradientUnits="userSpaceOnUse">
	<stop  offset="0" style="stop-color:#6DC6D9"/>
	<stop  offset="1" style="stop-color:#005D3E"/>
</radialGradient>
<circle fill="url(#SVGID_3_)" cx="297.64" cy="297.64" r="269.292"/>
<g>
	<path d="M136.23,232.672V364.64H99.299v-99.387c-9.861,4.771-19.014,7.444-27.457,8.024v-17.402
		c19.399-1.934,33.064-9.668,40.992-23.203H136.23z"/>
	<path d="M233.974,230.642c36.802,0,55.204,22.688,55.204,68.063c0,45.376-18.402,68.063-55.204,68.063
		c-36.868,0-55.301-22.687-55.301-68.063C178.673,253.33,197.105,230.642,233.974,230.642z M233.974,241.18
		c-10.055,0-15.082,19.176-15.082,57.524c0,38.35,5.027,57.524,15.082,57.524c9.99,0,14.985-19.174,14.985-57.524
		C248.959,260.356,243.963,241.18,233.974,241.18z"/>
	<path d="M308.804,331.382l17.499-3.48c-0.646,3.867-0.967,7.284-0.967,10.248c0,12.118,5.735,18.176,17.209,18.176
		c7.928,0,13.453-3.077,16.58-9.233c3.126-6.154,5.463-18.643,7.01-37.463c-8.058,7.348-16.308,11.021-24.75,11.021
		c-11.602,0-21.109-4.044-28.521-12.133c-7.413-8.088-11.118-18.449-11.118-31.083c0-14.115,4.462-25.475,13.391-34.08
		c8.926-8.604,20.704-12.907,35.336-12.907c37.318,0,55.978,22.43,55.978,67.289c0,21.463-5.383,38.35-16.146,50.66
		c-10.765,12.312-25.492,18.466-44.183,18.466c-25.073,0-37.608-9.378-37.608-28.134C308.514,336.99,308.61,334.541,308.804,331.382
		z M353.47,240.987c-9.411,0-14.115,12.15-14.115,36.448c0,19.788,4.124,29.681,12.375,29.681c10.505,0,15.759-10.635,15.759-31.904
		C367.488,252.395,362.814,240.987,353.47,240.987z"/>
	<path d="M517.825,232.672l-5.027,27.747h-62.552l-4.931,28.23c10.569-7.154,21.526-10.731,32.871-10.731
		c13.729,0,24.991,4.029,33.79,12.085c8.797,8.058,13.196,18.369,13.196,30.938c0,14.052-4.947,25.218-14.841,33.5
		c-9.895,8.283-23.251,12.423-40.073,12.423c-30.423,0-45.633-10.441-45.633-31.324c0-3.029,0.45-6.768,1.354-11.215l17.112-3.577
		c-1.097,5.286-1.644,10.12-1.644,14.502c0,13.148,6.992,19.723,20.979,19.723c16.757,0,25.137-11.892,25.137-35.675
		c0-16.822-7.123-25.233-21.366-25.233c-8.508,0-16.082,4.512-22.72,13.535l-15.275-3.674l12.375-71.253H517.825z"/>
</g>
</svg>
