<?xml version="1.0" encoding="utf-8"?>
<!-- Generator: Adobe Illustrator 16.0.3, SVG Export Plug-In . SVG Version: 6.00 Build 0)  -->
<!DOCTYPE svg PUBLIC "-//W3C//DTD SVG 1.1//EN" "http://www.w3.org/Graphics/SVG/1.1/DTD/svg11.dtd">
<svg version="1.1" id="Capa_1" xmlns="http://www.w3.org/2000/svg" xmlns:xlink="http://www.w3.org/1999/xlink" x="0px" y="0px"
	 width="595.28px" height="841.89px" viewBox="0 0 595.28 841.89" enable-background="new 0 0 595.28 841.89" xml:space="preserve">
<radialGradient id="SVGID_1_" cx="297.6401" cy="297.6401" r="297.6401" gradientUnits="userSpaceOnUse">
	<stop  offset="0" style="stop-color:#FFFFFF"/>
	<stop  offset="0.9113" style="stop-color:#FCD0A8"/>
	<stop  offset="1" style="stop-color:#F08019"/>
</radialGradient>
<circle fill="url(#SVGID_1_)" cx="297.64" cy="297.64" r="297.64"/>
<radialGradient id="SVGID_2_" cx="297.6401" cy="297.6401" r="269.2915" gradientUnits="userSpaceOnUse">
	<stop  offset="0" style="stop-color:#6DC6D9"/>
	<stop  offset="1" style="stop-color:#005D3E"/>
</radialGradient>
<circle fill="url(#SVGID_2_)" cx="297.64" cy="297.64" r="269.292"/>
<radialGradient id="SVGID_3_" cx="297.6401" cy="297.6401" r="269.2915" gradientUnits="userSpaceOnUse">
	<stop  offset="0" style="stop-color:#6DC6D9"/>
	<stop  offset="1" style="stop-color:#005D3E"/>
</radialGradient>
<circle fill="url(#SVGID_3_)" cx="297.64" cy="297.64" r="269.292"/>
<g>
	<path d="M203.002,213.348v26.045c-29.188,38.199-43.78,82.642-43.78,133.325v9.922h-54.818
		c2.977-49.195,22.654-92.77,59.035-130.721H76.25l5.829-38.571H203.002z"/>
	<path d="M357.66,341.96v40.68H231.404v-23.937c10.334-11.41,22.2-23.564,35.595-36.463c30.014-28.69,45.021-50.642,45.021-65.856
		c0-20.256-8.021-30.386-24.061-30.386c-19.514,0-29.27,12.238-29.27,36.711c0,5.789,1.405,13.933,4.217,24.433l-26.169-6.201
		c-1.984-7.771-2.977-14.015-2.977-18.728c0-34.312,21.208-51.47,63.624-51.47c17.941,0,32.7,4.424,44.276,13.271
		c11.575,8.848,17.363,20.175,17.363,33.982c0,15.793-11.452,32.99-34.354,51.594l-15.379,12.402l-16.992,14.263
		c-1.076,0.911-3.721,2.812-7.938,5.705H357.66z"/>
	<path d="M392.635,339.976l22.448-4.465c-0.827,4.961-1.24,9.344-1.24,13.146c0,15.545,7.358,23.316,22.076,23.316
		c10.17,0,17.259-3.947,21.271-11.844c4.009-7.895,7.007-23.915,8.991-48.059c-10.337,9.426-20.919,14.139-31.75,14.139
		c-14.883,0-27.08-5.188-36.587-15.565c-9.509-10.375-14.263-23.667-14.263-39.874c0-18.107,5.725-32.68,17.177-43.718
		c11.451-11.038,26.561-16.557,45.331-16.557c47.873,0,71.81,28.773,71.81,86.32c0,27.533-6.904,49.197-20.712,64.988
		c-13.81,15.793-32.701,23.688-56.679,23.688c-32.165,0-48.245-12.03-48.245-36.091
		C392.263,347.169,392.387,344.028,392.635,339.976z M449.934,224.014c-12.073,0-18.107,15.586-18.107,46.757
		c0,25.384,5.29,38.075,15.875,38.075c13.476,0,20.216-13.643,20.216-40.928C467.917,238.649,461.921,224.014,449.934,224.014z"/>
</g>
</svg>
