<?xml version="1.0" encoding="utf-8"?>
<!-- Generator: Adobe Illustrator 16.0.3, SVG Export Plug-In . SVG Version: 6.00 Build 0)  -->
<!DOCTYPE svg PUBLIC "-//W3C//DTD SVG 1.1//EN" "http://www.w3.org/Graphics/SVG/1.1/DTD/svg11.dtd">
<svg version="1.1" id="Capa_1" xmlns="http://www.w3.org/2000/svg" xmlns:xlink="http://www.w3.org/1999/xlink" x="0px" y="0px"
	 width="595.28px" height="841.89px" viewBox="0 0 595.28 841.89" enable-background="new 0 0 595.28 841.89" xml:space="preserve">
<radialGradient id="SVGID_1_" cx="297.6401" cy="297.6401" r="297.6401" gradientUnits="userSpaceOnUse">
	<stop  offset="0" style="stop-color:#FFFFFF"/>
	<stop  offset="0.9113" style="stop-color:#FCD0A8"/>
	<stop  offset="1" style="stop-color:#F08019"/>
</radialGradient>
<circle fill="url(#SVGID_1_)" cx="297.64" cy="297.64" r="297.64"/>
<radialGradient id="SVGID_2_" cx="297.6401" cy="297.6401" r="269.2915" gradientUnits="userSpaceOnUse">
	<stop  offset="0" style="stop-color:#6DC6D9"/>
	<stop  offset="1" style="stop-color:#005D3E"/>
</radialGradient>
<circle fill="url(#SVGID_2_)" cx="297.64" cy="297.64" r="269.292"/>
<radialGradient id="SVGID_3_" cx="297.6401" cy="297.6401" r="269.2915" gradientUnits="userSpaceOnUse">
	<stop  offset="0" style="stop-color:#6DC6D9"/>
	<stop  offset="1" style="stop-color:#005D3E"/>
</radialGradient>
<circle fill="url(#SVGID_3_)" cx="297.64" cy="297.64" r="269.292"/>
<g>
	<path d="M79.995,326.83l22.696-1.24c-1.903,6.533-2.977,12.362-3.225,17.487c-0.828,18.107,8.722,27.161,28.649,27.161
		c19.596,0,29.394-11.038,29.394-33.114c0-22.324-11.701-33.486-35.099-33.486l-13.395,0.248v-19.968l9.674,0.124
		c24.638,0,36.959-10.418,36.959-31.254c0-18.107-8.724-27.161-26.169-27.161c-17.199,0-25.797,7.98-25.797,23.937
		c0,3.887,0.496,8.393,1.488,13.519l-22.696-4.713c0-31.998,18.604-47.997,55.811-47.997c42.912,0,64.368,14.635,64.368,43.904
		c0,19.183-12.114,32.206-36.339,39.067c27.45,6.285,41.176,20.506,41.176,42.664c0,32.99-22.863,49.485-68.585,49.485
		c-40.68,0-61.02-13.643-61.02-40.928C77.886,339.439,78.588,333.527,79.995,326.83z"/>
	<path d="M358.676,257.128l-22.572,3.721c0.992-5.457,1.488-10.127,1.488-14.015c0-15.212-7.193-22.82-21.58-22.82
		c-10.337,0-17.592,4.073-21.767,12.216c-4.176,8.145-7.255,24.123-9.24,47.935c10.334-9.011,21.084-13.519,32.247-13.519
		c14.551,0,26.622,5.085,36.215,15.255c9.59,10.17,14.387,22.987,14.387,38.447c0,18.604-5.644,33.486-16.93,44.648
		s-26.314,16.743-45.082,16.743c-48.288,0-72.43-28.277-72.43-84.832c0-27.533,6.924-49.485,20.774-65.856
		c13.848-16.371,32.432-24.557,55.748-24.557c32.824,0,49.238,12.941,49.238,38.819
		C359.172,251.547,359.005,254.152,358.676,257.128z M302.865,288.01c-12.982,0-19.472,13.065-19.472,39.191
		c0,30.014,6.118,45.021,18.355,45.021c11.906,0,17.859-15.875,17.859-47.625C319.607,300.207,314.027,288.01,302.865,288.01z"/>
	<path d="M508.867,213.348l-6.449,35.595h-80.243l-6.325,36.215c13.56-9.178,27.614-13.767,42.168-13.767
		c17.611,0,32.061,5.168,43.346,15.503c11.287,10.336,16.93,23.564,16.93,39.688c0,18.026-6.347,32.351-19.037,42.974
		c-12.693,10.625-29.828,15.937-51.408,15.937c-39.026,0-58.539-13.395-58.539-40.184c0-3.885,0.577-8.682,1.736-14.387
		l21.952-4.589c-1.407,6.781-2.108,12.982-2.108,18.604c0,16.867,8.971,25.301,26.913,25.301c21.497,0,32.246-15.255,32.246-45.765
		c0-21.58-9.137-32.37-27.409-32.37c-10.914,0-20.631,5.789-29.146,17.363l-19.596-4.713l15.875-91.405H508.867z"/>
</g>
</svg>
