<?xml version="1.0" encoding="utf-8"?>
<!-- Generator: Adobe Illustrator 16.0.3, SVG Export Plug-In . SVG Version: 6.00 Build 0)  -->
<!DOCTYPE svg PUBLIC "-//W3C//DTD SVG 1.1//EN" "http://www.w3.org/Graphics/SVG/1.1/DTD/svg11.dtd">
<svg version="1.1" id="Capa_1" xmlns="http://www.w3.org/2000/svg" xmlns:xlink="http://www.w3.org/1999/xlink" x="0px" y="0px"
	 width="595.28px" height="841.89px" viewBox="0 0 595.28 841.89" enable-background="new 0 0 595.28 841.89" xml:space="preserve">
<radialGradient id="SVGID_1_" cx="297.6401" cy="297.6401" r="297.6401" gradientUnits="userSpaceOnUse">
	<stop  offset="0" style="stop-color:#FFFFFF"/>
	<stop  offset="0.9113" style="stop-color:#FCD0A8"/>
	<stop  offset="1" style="stop-color:#F08019"/>
</radialGradient>
<circle fill="url(#SVGID_1_)" cx="297.64" cy="297.64" r="297.64"/>
<radialGradient id="SVGID_2_" cx="297.6401" cy="297.6401" r="269.2915" gradientUnits="userSpaceOnUse">
	<stop  offset="0" style="stop-color:#6DC6D9"/>
	<stop  offset="1" style="stop-color:#005D3E"/>
</radialGradient>
<circle fill="url(#SVGID_2_)" cx="297.64" cy="297.64" r="269.292"/>
<radialGradient id="SVGID_3_" cx="297.6401" cy="297.6401" r="269.2915" gradientUnits="userSpaceOnUse">
	<stop  offset="0" style="stop-color:#6DC6D9"/>
	<stop  offset="1" style="stop-color:#005D3E"/>
</radialGradient>
<circle fill="url(#SVGID_3_)" cx="297.64" cy="297.64" r="269.292"/>
<g>
	<path d="M274.955,365.3v61.34H84.577v-36.094c15.583-17.205,33.475-35.532,53.672-54.981
		c45.257-43.261,67.885-76.362,67.885-99.303c0-30.544-12.094-45.818-36.28-45.818c-29.425,0-44.135,18.453-44.135,55.355
		c0,8.728,2.119,21.01,6.358,36.841l-39.459-9.351c-2.992-11.717-4.488-21.132-4.488-28.239c0-51.738,31.979-77.61,95.937-77.61
		c27.052,0,49.307,6.671,66.763,20.01c17.454,13.342,26.182,30.421,26.182,51.241c0,23.815-17.27,49.745-51.802,77.797
		l-23.189,18.701l-25.621,21.506c-1.622,1.374-5.61,4.24-11.969,8.603H274.955z"/>
	<path d="M509.28,171.369v39.272c-44.012,57.6-66.015,124.614-66.015,201.038v14.961h-82.66
		c4.488-74.18,34.159-139.885,89.018-197.111H318.154l8.789-58.161H509.28z"/>
</g>
</svg>
