<?xml version="1.0" encoding="utf-8"?>
<!-- Generator: Adobe Illustrator 16.0.3, SVG Export Plug-In . SVG Version: 6.00 Build 0)  -->
<!DOCTYPE svg PUBLIC "-//W3C//DTD SVG 1.1//EN" "http://www.w3.org/Graphics/SVG/1.1/DTD/svg11.dtd">
<svg version="1.1" id="Capa_1" xmlns="http://www.w3.org/2000/svg" xmlns:xlink="http://www.w3.org/1999/xlink" x="0px" y="0px"
	 width="595.28px" height="841.89px" viewBox="0 0 595.28 841.89" enable-background="new 0 0 595.28 841.89" xml:space="preserve">
<radialGradient id="SVGID_1_" cx="297.6401" cy="297.6401" r="297.6401" gradientUnits="userSpaceOnUse">
	<stop  offset="0" style="stop-color:#FFFFFF"/>
	<stop  offset="0.9113" style="stop-color:#FCD0A8"/>
	<stop  offset="1" style="stop-color:#F08019"/>
</radialGradient>
<circle fill="url(#SVGID_1_)" cx="297.64" cy="297.64" r="297.64"/>
<radialGradient id="SVGID_2_" cx="297.6401" cy="297.6401" r="269.2915" gradientUnits="userSpaceOnUse">
	<stop  offset="0" style="stop-color:#6DC6D9"/>
	<stop  offset="1" style="stop-color:#005D3E"/>
</radialGradient>
<circle fill="url(#SVGID_2_)" cx="297.64" cy="297.64" r="269.292"/>
<radialGradient id="SVGID_3_" cx="297.6401" cy="297.6401" r="269.2915" gradientUnits="userSpaceOnUse">
	<stop  offset="0" style="stop-color:#6DC6D9"/>
	<stop  offset="1" style="stop-color:#005D3E"/>
</radialGradient>
<circle fill="url(#SVGID_3_)" cx="297.64" cy="297.64" r="269.292"/>
<g>
	<path d="M204.568,339.96v40.68H78.313v-23.937c10.334-11.41,22.2-23.564,35.595-36.463c30.014-28.69,45.021-50.642,45.021-65.856
		c0-20.256-8.021-30.386-24.061-30.386c-19.514,0-29.27,12.238-29.27,36.711c0,5.789,1.405,13.933,4.217,24.433l-26.169-6.201
		c-1.984-7.771-2.977-14.015-2.977-18.728c0-34.312,21.208-51.47,63.624-51.47c17.941,0,32.7,4.424,44.276,13.271
		c11.575,8.848,17.363,20.175,17.363,33.982c0,15.793-11.453,32.99-34.354,51.594l-15.379,12.402l-16.991,14.263
		c-1.076,0.911-3.721,2.812-7.938,5.705H204.568z"/>
	<path d="M361.334,345.293h-18.728v35.347h-48.121v-35.347h-63.004v-20.96l78.879-112.985h32.246v114.846h18.728V345.293z
		 M253.434,326.194h41.796v-64.74L253.434,326.194z"/>
	<path d="M389.487,324.83l22.696-1.24c-1.903,6.533-2.977,12.362-3.225,17.487c-0.827,18.107,8.723,27.161,28.649,27.161
		c19.596,0,29.394-11.038,29.394-33.114c0-22.324-11.701-33.486-35.099-33.486l-13.395,0.248v-19.968l9.674,0.124
		c24.638,0,36.959-10.418,36.959-31.254c0-18.107-8.725-27.161-26.169-27.161c-17.198,0-25.797,7.98-25.797,23.937
		c0,3.887,0.496,8.393,1.488,13.519l-22.696-4.713c0-31.998,18.604-47.997,55.811-47.997c42.912,0,64.368,14.635,64.368,43.904
		c0,19.183-12.113,32.206-36.339,39.067c27.45,6.285,41.176,20.506,41.176,42.664c0,32.99-22.863,49.485-68.585,49.485
		c-40.68,0-61.02-13.643-61.02-40.928C387.379,337.439,388.08,331.527,389.487,324.83z"/>
</g>
</svg>
