<?xml version="1.0" encoding="utf-8"?>
<!-- Generator: Adobe Illustrator 16.0.3, SVG Export Plug-In . SVG Version: 6.00 Build 0)  -->
<!DOCTYPE svg PUBLIC "-//W3C//DTD SVG 1.1//EN" "http://www.w3.org/Graphics/SVG/1.1/DTD/svg11.dtd">
<svg version="1.1" id="Capa_1" xmlns="http://www.w3.org/2000/svg" xmlns:xlink="http://www.w3.org/1999/xlink" x="0px" y="0px"
	 width="595.28px" height="841.89px" viewBox="0 0 595.28 841.89" enable-background="new 0 0 595.28 841.89" xml:space="preserve">
<linearGradient id="SVGID_1_" gradientUnits="userSpaceOnUse" x1="0" y1="148.8188" x2="297.6377" y2="148.8188">
	<stop  offset="0" style="stop-color:#FFED00"/>
	<stop  offset="1" style="stop-color:#C76016"/>
</linearGradient>
<polygon fill="url(#SVGID_1_)" points="178.125,297.638 0,0 95.438,0 297.638,171.313 "/>
<linearGradient id="SVGID_2_" gradientUnits="userSpaceOnUse" x1="0" y1="148.8188" x2="297.6377" y2="148.8188" gradientTransform="matrix(-1 0 0 1 595.2803 0)">
	<stop  offset="0" style="stop-color:#FFED00"/>
	<stop  offset="1" style="stop-color:#C76016"/>
</linearGradient>
<polygon fill="url(#SVGID_2_)" points="417.152,297.638 595.28,0 499.841,0 297.638,171.313 "/>
<radialGradient id="SVGID_3_" cx="297.6401" cy="446.459" r="297.6404" gradientUnits="userSpaceOnUse">
	<stop  offset="0.8125" style="stop-color:#FFFFFF"/>
	<stop  offset="1" style="stop-color:#A39B96"/>
</radialGradient>
<circle fill="url(#SVGID_3_)" cx="297.64" cy="446.459" r="297.64"/>
<radialGradient id="SVGID_4_" cx="297.6401" cy="446.459" r="269.2917" gradientUnits="userSpaceOnUse">
	<stop  offset="0" style="stop-color:#6DC6D9"/>
	<stop  offset="1" style="stop-color:#005D3E"/>
</radialGradient>
<circle fill="url(#SVGID_4_)" cx="297.64" cy="446.459" r="269.292"/>
<radialGradient id="SVGID_5_" cx="297.6401" cy="446.459" r="269.2917" gradientUnits="userSpaceOnUse">
	<stop  offset="0" style="stop-color:#A39B96"/>
	<stop  offset="0.4039" style="stop-color:#FFFFFF"/>
	<stop  offset="1" style="stop-color:#FFFFFF"/>
</radialGradient>
<circle fill="url(#SVGID_5_)" cx="297.64" cy="446.459" r="269.292"/>
<g>
	<path d="M385.158,385.692l-34.035,5.61c1.496-8.229,2.244-15.271,2.244-21.132c0-22.938-10.848-34.41-32.541-34.41
		c-15.586,0-26.526,6.142-32.82,18.42c-6.297,12.281-10.939,36.374-13.932,72.28c15.583-13.588,31.791-20.384,48.623-20.384
		c21.941,0,40.143,7.667,54.607,23.002c14.461,15.335,21.693,34.661,21.693,57.974c0,28.052-8.51,50.493-25.527,67.324
		c-17.019,16.831-39.679,25.247-67.979,25.247c-72.813,0-109.215-42.639-109.215-127.916c0-41.518,10.44-74.618,31.324-99.304
		c20.881-24.686,48.903-37.028,84.062-37.028c49.494,0,74.243,19.514,74.243,58.535
		C385.906,377.276,385.655,381.204,385.158,385.692z M301.004,432.259c-19.575,0-29.361,19.7-29.361,59.096
		c0,45.256,9.225,67.885,27.678,67.885c17.953,0,26.93-23.938,26.93-71.813C326.25,450.649,317.834,432.259,301.004,432.259z"/>
</g>
</svg>
